{"title":"Manoel de Oliveira - Francisca (1981)","uid":5790740,"size":2257464625,"categoryP":"video","categoryS":"movies","magnet":"?xt=urn:btih:76f45e53651ebbb4877f17ec6354b1e74eaa1d82&amp;dn=Manoel+de+Oliveira+-+Francisca+%281981%29&amp;tr=udp%3A%2F%2Ftracker.openbittorrent.com%3A80&amp;tr=udp%3A%2F%2Fopen.demonii.com%3A1337&amp;tr=udp%3A%2F%2Ftracker.coppersurfer.tk%3A6969&amp;tr=udp%3A%2F%2Fexodus.desync.com%3A6969","seeders":1,"leechers":0,"uploader":"mfccorrea","files":3,"time":1282838759,"description":"Manoel de Oliveira  wrote and directed this historical drama about the lives of some of his wife's ancestors who were active in the first half of the 19th century. In order to put across this slower-paced era before automobiles, planes, instant television and radio news, and computers, Oliveira uses a series of tableaus to emphasize the drama of each setting and the lifestyle of the protagonists. The feckless, wealthy Jose Augusto (Diogo Doria) and Fanny Owen (Teresa Meneses), a young English woman, are attracted to each other. A perennial love triangle is created when the author Camilo Castelo Branco (Mario Barroso) also falls in love with Fanny (Francisca), but is placed in a bind because he is a friend of Jose Augusto. In the end Fanny opts for the wealthy young man, and Camilo (who would eventually die by suicide) loses the love of his life. Now that the rich young man has succeeded in the chase, he has no interest in the result, and he and Fanny are married by proxy. Although she goes to live in his mansion, he does not stay with her and she is left alone -- and untouched. The triangle has come apart, and Fanny and Camilo have been separated, almost by the whim of the rich and disinterested Jose Augusto. \n\n   General\n      Complete name : Francisca.avi\n      Format : AVI\n      Format/Info : Audio Video Interleave\n      Format profile : OpenDML\n      File size : 2.10 GiB\n      Duration : 2h 40mn\n      Overall bit rate : 1 874 Kbps\n      Writing application : VirtualDubMod 1.5.10.2 (build 2540/release)\n      Writing library : VirtualDubMod build 2540/release\n   Video #0\n      ID : 0\n      Format : MPEG-4 Visual\n      Format profile : AdvancedSimple@L5\n      Format settings, BVOP : Yes\n      Format settings, QPel : No\n      Format settings, GMC : No warppoints\n      Format settings, Matrix : Default (MPEG)\n      Codec ID : XVID\n      Codec ID/Hint : XviD\n      Duration : 2h 40mn\n      Bit rate : 1 734 Kbps\n      Width : 656 pixels\n      Height : 400 pixels\n      Display aspect ratio : 1.640\n      Frame rate : 25.000 fps\n      Resolution : 24 bits\n      Colorimetry : 4:2:0\n      Scan type : Progressive\n      Bits/(Pixel*Frame) : 0.264\n      Stream size : 1.94 GiB (92%)\n      Writing library : XviD 1.0.1 (UTC 2004-06-05)\n   Audio #1\n      ID : 1\n      Format : MPEG Audio\n      Format version : Version 1\n      Format profile : Layer 3\n      Codec ID : 55\n      Codec ID/Hint : MP3\n      Duration : 2h 40mn\n      Bit rate mode : Constant\n      Bit rate : 128 Kbps\n      Channel(s) : 2 channels\n      Sampling rate : 48.0 KHz\n      Resolution : 16 bits\n      Stream size : 147 MiB (7%)\n      Alignment : Aligned on interleaves\n      Interleave, duration : 40 ms (1.00 video frame)\n      Interleave, preload duration : 504 ms\n &lt;a href=&quot;\nhttp://www.imdb.com/title/tt0082408/&quot; rel=&quot;nofollow&quot; target=&quot;_NEW&quot;&gt;\nhttp://www.imdb.com/title/tt0082408/&lt;/a&gt;\n\nPortuguese audio; English and Spanish subtitles\n\nPosted originally at KG by maximer, whom we thank\n\nManoel de Oliveira - Francisca (1981)","torrent":{"xt":"urn:btih:76f45e53651ebbb4877f17ec6354b1e74eaa1d82","amp;dn":"Manoel+de+Oliveira+-+Francisca+%281981%29","amp;tr":["udp%3A%2F%2Ftracker.openbittorrent.com%3A80","udp%3A%2F%2Fopen.demonii.com%3A1337","udp%3A%2F%2Ftracker.coppersurfer.tk%3A6969","udp%3A%2F%2Fexodus.desync.com%3A6969"],"infoHash":"76f45e53651ebbb4877f17ec6354b1e74eaa1d82","infoHashBuffer":{"type":"Buffer","data":[118,244,94,83,101,30,187,180,135,127,23,236,99,84,177,231,78,170,29,130]},"announce":[],"urlList":[]}}